<?xml version="1.0" standalone="no"?>
<!DOCTYPE svg PUBLIC "-//W3C//DTD SVG 20010904//EN"
 "http://www.w3.org/TR/2001/REC-SVG-20010904/DTD/svg10.dtd">
<svg version="1.0" xmlns="http://www.w3.org/2000/svg"
 width="894.000000pt" height="894.000000pt" viewBox="0 0 894.000000 894.000000"
 preserveAspectRatio="xMidYMid meet">

<g transform="translate(0.000000,894.000000) scale(0.100000,-0.100000)"
fill="#000000" stroke="none">
<path d="M4604 7552 c-195 -127 -549 -477 -711 -704 -173 -242 -239 -441 -250
-748 -4 -133 -2 -181 12 -250 30 -149 105 -317 197 -440 23 -30 114 -125 201
-210 169 -164 257 -272 313 -381 18 -37 38 -70 44 -74 6 -4 17 8 25 27 15 33
50 89 158 252 88 132 199 352 192 379 -4 16 -4 18 3 8 9 -13 13 -2 72 184 34
109 37 363 5 515 -23 112 -70 256 -142 440 -89 227 -113 324 -120 486 -7 159
17 334 73 537 8 25 -6 21 -72 -21z m-155 -829 c22 -86 53 -175 89 -253 94
-208 130 -312 163 -469 21 -101 25 -248 8 -321 -14 -65 -42 -130 -56 -130 -6
0 -13 -5 -15 -10 -2 -7 -24 -2 -55 12 -42 18 -53 28 -54 48 -1 20 -2 21 -6 5
-14 -65 -93 -474 -95 -493 -3 -23 -50 89 -118 285 -56 160 -94 353 -106 548
-7 119 10 401 32 516 24 126 80 303 132 414 l47 100 6 -85 c3 -47 16 -122 28
-167z m-350 -191 c73 -132 79 -153 61 -227 -22 -87 -40 -192 -40 -230 -1 -40
-1 -40 -15 -15 l-14 25 -2 -25 c-2 -24 -2 -24 -6 -2 -2 12 -11 22 -18 22 -14
0 -41 38 -37 53 1 4 -15 7 -35 7 -40 1 -72 18 -74 41 -1 8 -5 1 -10 -16 -15
-52 -1 165 15 242 17 78 83 253 96 253 5 0 41 -58 79 -128z m748 -444 c-3 -8
-6 -5 -6 6 -1 11 2 17 5 13 3 -3 4 -12 1 -19z m-7 -382 c0 -3 -4 -8 -10 -11
-5 -3 -10 -1 -10 4 0 6 5 11 10 11 6 0 10 -2 10 -4z m7 -88 c-3 -8 -6 -5 -6 6
-1 11 2 17 5 13 3 -3 4 -12 1 -19z m-400 -800 c-3 -8 -6 -5 -6 6 -1 11 2 17 5
13 3 -3 4 -12 1 -19z"/>
<path d="M4551 5594 c0 -11 3 -14 6 -6 3 7 2 16 -1 19 -3 4 -6 -2 -5 -13z"/>
<path d="M4104 6135 c-3 -8 -4 -20 -2 -27 3 -7 7 -1 10 15 6 29 1 36 -8 12z"/>
<path d="M6140 6588 c-52 -111 -160 -261 -259 -358 -95 -92 -134 -120 -356
-250 -297 -174 -530 -403 -649 -638 -37 -73 -92 -238 -107 -322 -17 -96 -17
-314 0 -410 21 -115 106 -379 118 -366 3 3 6 36 8 73 2 65 41 217 70 273 7 14
28 58 46 98 18 39 36 72 40 72 4 0 10 8 13 18 3 9 22 33 41 52 130 129 160
166 344 430 196 279 404 453 640 534 l65 22 23 75 c59 194 67 397 23 608 -32
152 -32 152 -60 89z m-271 -721 c-15 -53 -27 -77 -47 -92 -175 -130 -349 -289
-458 -419 -112 -134 -315 -419 -383 -538 -18 -32 -34 -58 -35 -58 -2 0 -1 24
1 53 28 401 206 712 531 930 68 46 393 208 403 201 4 -2 -1 -37 -12 -77z"/>
<path d="M2196 5957 c230 -126 366 -322 504 -727 125 -366 199 -503 352 -645
35 -33 89 -77 121 -98 52 -35 267 -147 282 -147 3 0 46 -20 95 -45 101 -50
210 -121 210 -136 0 -6 -7 -6 -19 1 -28 14 -67 12 -80 -4 -10 -12 -3 -25 37
-68 166 -184 375 -534 447 -751 47 -141 65 -238 65 -353 l0 -94 -1370 0 c-836
0 -1370 -4 -1370 -9 0 -28 357 -130 570 -163 129 -20 4855 -19 4985 1 189 29
514 126 492 147 -14 14 -584 23 -1542 25 -599 1 -1109 4 -1132 7 -41 4 -42 5
-50 51 -4 25 -8 138 -7 251 0 181 3 214 22 285 40 144 119 282 232 408 97 107
458 366 650 466 44 23 80 47 80 53 0 32 -275 -52 -467 -142 -229 -108 -464
-298 -598 -485 l-20 -28 -28 269 c-39 376 -85 742 -100 795 -17 59 -40 58 -49
-1 -3 -25 -7 -79 -7 -120 -2 -95 -38 -550 -45 -557 -3 -3 -20 28 -38 68 -132
298 -352 691 -366 651 -2 -6 28 -102 66 -214 39 -112 104 -302 146 -423 114
-330 152 -535 140 -758 -3 -67 -8 -129 -11 -137 -2 -8 -17 17 -32 56 -57 146
-135 268 -273 429 -73 84 -218 226 -256 251 -2 1 17 65 41 141 58 176 73 237
86 348 15 122 14 192 -4 305 -22 138 -49 219 -120 365 -82 166 -248 387 -277
368 -7 -3 -8 -1 -4 5 4 7 -9 26 -30 44 -175 156 -402 268 -644 320 -81 17
-142 21 -420 24 l-325 5 61 -34z m820 -232 c195 -47 328 -126 472 -280 134
-143 216 -294 273 -500 18 -64 23 -113 25 -245 2 -91 6 -181 9 -200 3 -19 -8
3 -25 50 -63 176 -205 427 -339 600 -80 104 -235 265 -316 330 -33 26 -106 79
-163 118 -91 62 -152 119 -152 144 0 16 118 7 216 -17z m-70 -247 c173 -122
274 -224 386 -388 143 -209 238 -399 272 -544 7 -27 3 -25 -58 31 -36 34 -127
108 -203 164 -239 178 -329 287 -409 496 -21 56 -64 238 -64 273 0 17 16 11
76 -32z m1004 -865 c-11 -17 -11 -17 -6 0 3 10 7 26 7 35 1 15 2 15 6 0 2 -10
-1 -25 -7 -35z m-143 -35 c-3 -8 -6 -5 -6 6 -1 11 2 17 5 13 3 -3 4 -12 1 -19z
m130 -30 c-3 -8 -6 -5 -6 6 -1 11 2 17 5 13 3 -3 4 -12 1 -19z m-109 -29 c-3
-8 -7 -3 -11 10 -4 17 -3 21 5 13 5 -5 8 -16 6 -23z m112 -52 c0 -5 -4 -5 -10
-2 -5 3 -10 14 -10 23 0 15 2 15 10 2 5 -8 10 -19 10 -23z m-111 -27 c0 -10
-3 -9 -10 5 -7 14 -8 3 -5 -39 6 -69 -2 -69 -13 1 -5 31 -4 53 3 60 13 12 26
-2 25 -27z m20 -72 c1 -5 -3 -8 -9 -8 -5 0 -10 12 -9 28 0 24 1 25 9 7 5 -11
9 -23 9 -27z m8 -50 c-3 -7 -5 -2 -5 12 0 14 2 19 5 13 2 -7 2 -19 0 -25z m20
-40 c-3 -8 -6 -5 -6 6 -1 11 2 17 5 13 3 -3 4 -12 1 -19z"/>
<path d="M6550 4891 c-165 -53 -285 -175 -293 -296 -2 -37 0 -40 25 -43 61 -7
298 129 405 233 54 52 67 87 41 113 -17 17 -114 14 -178 -7z"/>
<path d="M2270 4863 c-44 -18 -39 -63 11 -118 32 -34 74 -61 178 -111 75 -37
148 -70 162 -74 79 -23 57 89 -34 182 -80 81 -254 148 -317 121z"/>
<path d="M4040 2639 c-225 -14 -455 -49 -697 -108 -141 -34 -349 -48 -660 -43
-185 3 -202 2 -211 -14 -9 -17 -25 -18 -174 -16 -177 3 -210 -4 -216 -47 -12
-81 50 -106 233 -93 l90 7 0 50 0 50 68 7 c54 6 84 4 144 -12 42 -11 109 -20
148 -20 40 0 75 -3 79 -7 3 -4 -27 -19 -68 -34 -243 -88 -535 -276 -718 -460
-48 -48 -94 -101 -103 -118 l-16 -31 29 0 c40 0 106 24 399 146 l258 107 211
-6 c116 -4 289 -12 385 -18 96 -6 277 -9 404 -6 223 5 238 7 500 55 412 77
575 89 965 72 140 -6 390 -22 554 -35 165 -14 347 -25 404 -26 113 -1 126 -5
412 -124 175 -73 309 -97 324 -58 9 21 -24 56 -147 155 -133 106 -220 164
-357 236 -482 255 -881 357 -1525 392 -213 11 -526 11 -715 -1z m943 -293
c292 -32 523 -78 722 -145 145 -48 150 -48 -247 -24 -346 22 -861 24 -998 5
-143 -21 -354 -60 -455 -85 -87 -21 -106 -22 -592 -22 -277 0 -503 2 -503 5 0
9 444 151 565 181 172 41 425 80 685 103 102 9 692 -4 823 -18z"/>
<path d="M6173 2465 c-33 -7 -73 -20 -89 -28 -25 -13 -17 -14 92 -10 65 3 144
1 174 -4 l55 -9 -3 -41 c-1 -30 2 -42 14 -47 24 -9 387 -20 417 -12 34 8 61
48 53 80 -11 43 -57 55 -222 56 -82 1 -183 8 -224 16 -91 17 -185 17 -267 -1z"/>
<path d="M4650 1933 c-65 -10 -218 -49 -348 -89 -210 -65 -253 -73 -412 -80
-80 -4 -153 -11 -162 -16 -26 -13 -22 -45 8 -64 22 -15 44 -16 164 -10 77 3
174 13 217 21 103 20 618 162 643 177 23 14 26 38 8 56 -11 11 -64 14 -118 5z"/>
<path d="M5370 1870 c-193 -9 -338 -35 -595 -106 -274 -76 -293 -83 -306 -107
-10 -17 -8 -24 11 -39 28 -22 60 -18 224 29 315 89 440 111 701 119 191 7 495
-7 679 -32 209 -27 302 -15 294 39 -3 18 -14 24 -73 35 -274 49 -657 75 -935
62z"/>
</g>
</svg>
